<?xml version="1.0" encoding="utf-8"?>
<!-- Generator: Adobe Illustrator 25.4.1, SVG Export Plug-In . SVG Version: 6.00 Build 0)  -->
<svg version="1.1" id="Capa_1" xmlns="http://www.w3.org/2000/svg" xmlns:xlink="http://www.w3.org/1999/xlink" x="0px" y="0px"
	 viewBox="0 0 400 40" style="enable-background:new 0 0 400 40;" xml:space="preserve">
<style type="text/css">
	.st0{fill:#020203;}
</style>
<g>
	<path class="st0" d="M3.1,30.1H1.6V9.4H13v1.3H3.1v8.8h9.3v1.3H3.1V30.1z"/>
	<path class="st0" d="M38.9,9.4v13.4c0,2.4-0.7,4.2-2.1,5.6c-1.4,1.3-3.3,2-5.8,2c-2.4,0-4.3-0.7-5.6-2c-1.3-1.3-2-3.2-2-5.6V9.4
		h1.5v13.4c0,2,0.6,3.5,1.7,4.7c1.1,1.1,2.7,1.7,4.7,1.7c2,0,3.5-0.5,4.6-1.6c1.1-1.1,1.6-2.6,1.6-4.5V9.4H38.9z"/>
	<path class="st0" d="M67.1,30.1h-1.5L53.4,11.7h-0.1c0.1,2.2,0.2,3.8,0.2,5v13.4h-1.4V9.4h1.4l12.2,18.3h0.1
		c-0.1-1.7-0.1-3.3-0.1-4.8V9.4h1.4V30.1z"/>
	<path class="st0" d="M96.3,19.5c0,3.5-0.9,6.1-2.7,7.9c-1.8,1.8-4.5,2.7-8,2.7h-5V9.4h5.6c3.3,0,5.8,0.9,7.5,2.6
		C95.4,13.7,96.3,16.2,96.3,19.5z M94.7,19.6c0-3-0.8-5.2-2.3-6.7c-1.5-1.5-3.7-2.2-6.6-2.2H82v18.2h3.4
		C91.6,28.8,94.7,25.7,94.7,19.6z"/>
	<path class="st0" d="M118.5,22.7h-8.4l-2.9,7.3h-1.6l8.3-20.8h0.9l8.2,20.8h-1.6L118.5,22.7z M110.6,21.4h7.4l-2.8-7.5
		c-0.2-0.6-0.5-1.4-0.9-2.4c-0.3,0.9-0.5,1.7-0.8,2.5L110.6,21.4z"/>
	<path class="st0" d="M142.3,10.4c-2.6,0-4.6,0.8-6.1,2.5c-1.5,1.7-2.2,3.9-2.2,6.8c0,3,0.7,5.2,2.1,6.9c1.4,1.6,3.4,2.4,6,2.4
		c1.7,0,3.3-0.2,4.8-0.7v1.3c-1.4,0.5-3.1,0.7-5.1,0.7c-2.9,0-5.2-0.9-6.9-2.8c-1.7-1.9-2.5-4.5-2.5-7.9c0-2.1,0.4-4,1.2-5.6
		c0.8-1.6,1.9-2.8,3.4-3.7c1.5-0.9,3.2-1.3,5.2-1.3c2,0,3.8,0.4,5.4,1.1l-0.6,1.3C145.6,10.7,144,10.4,142.3,10.4z"/>
	<path class="st0" d="M159,30.1V9.4h1.4v20.7H159z"/>
	<path class="st0" d="M191.3,19.7c0,3.3-0.8,5.9-2.5,7.8c-1.6,1.9-3.9,2.9-6.8,2.9c-2.9,0-5.1-1-6.8-2.9c-1.6-1.9-2.5-4.5-2.5-7.8
		c0-3.3,0.8-5.9,2.5-7.8C176.9,10,179.2,9,182,9c2.9,0,5.1,1,6.8,2.9C190.4,13.8,191.3,16.4,191.3,19.7z M174.3,19.7
		c0,3,0.7,5.3,2,6.9c1.3,1.6,3.2,2.4,5.7,2.4c2.5,0,4.4-0.8,5.7-2.4c1.3-1.6,2-3.9,2-6.9c0-3-0.7-5.3-2-6.9
		c-1.3-1.6-3.2-2.4-5.7-2.4c-2.5,0-4.4,0.8-5.7,2.4C175,14.4,174.3,16.7,174.3,19.7z"/>
	<path class="st0" d="M218.6,30.1h-1.5l-12.3-18.4h-0.1c0.1,2.2,0.2,3.8,0.2,5v13.4h-1.4V9.4h1.4l12.2,18.3h0.1
		c-0.1-1.7-0.1-3.3-0.1-4.8V9.4h1.4V30.1z"/>
	<path class="st0" d="M245.8,30.1h-2.4V11.5h-6.6V9.4h15.5v2.1h-6.6V30.1z"/>
	<path class="st0" d="M276,30.1l-2.6-6.6h-8.3l-2.5,6.6h-2.4l8.2-20.8h2l8.1,20.8H276z M272.7,21.3l-2.4-6.4c-0.3-0.8-0.6-1.8-1-3
		c-0.2,0.9-0.5,1.9-0.9,3l-2.4,6.4H272.7z"/>
	<path class="st0" d="M295.3,30.1h-2.4V11.5h-6.6V9.4h15.5v2.1h-6.6V30.1z"/>
	<path class="st0" d="M312.5,30.1V9.4h2.4v20.7H312.5z"/>
	<path class="st0" d="M341.1,30.1l-2.6-6.6h-8.3l-2.5,6.6h-2.4l8.2-20.8h2l8.1,20.8H341.1z M337.8,21.3l-2.4-6.4
		c-0.3-0.8-0.6-1.8-1-3c-0.2,0.9-0.5,1.9-0.9,3l-2.4,6.4H337.8z"/>
	<path class="st0" d="M370.1,30.1h-2.7l-11.3-17.4H356c0.2,2,0.2,3.9,0.2,5.6v11.8H354V9.4h2.7L368,26.7h0.1c0-0.3-0.1-1.1-0.1-2.5
		c-0.1-1.4-0.1-2.4-0.1-3V9.4h2.3V30.1z"/>
	<path class="st0" d="M396.4,30.1l-2.6-6.6h-8.3l-2.5,6.6h-2.4l8.2-20.8h2l8.1,20.8H396.4z M393,21.3l-2.4-6.4c-0.3-0.8-0.6-1.8-1-3
		c-0.2,0.9-0.5,1.9-0.9,3l-2.4,6.4H393z"/>
</g>
</svg>
