<svg id="Capa_1" data-name="Capa 1" xmlns="http://www.w3.org/2000/svg" viewBox="0 0 292.65 15.7"><defs><style>.cls-1{fill:#05171d;}</style></defs><path class="cls-1" d="M4.8,57.62H3.73V42.37h8.36v1H4.8v6.46h6.88v1H4.8Z" transform="translate(-3.73 -42.14)"/><path class="cls-1" d="M31.22,42.37v9.87a5.45,5.45,0,0,1-1.53,4.11,5.81,5.81,0,0,1-4.24,1.48,5.59,5.59,0,0,1-4.14-1.48,5.62,5.62,0,0,1-1.48-4.15V42.37H20.9v9.87a4.67,4.67,0,0,0,1.22,3.43,4.66,4.66,0,0,0,3.45,1.22,4.17,4.17,0,0,0,4.58-4.54v-10Z" transform="translate(-3.73 -42.14)"/><path class="cls-1" d="M52,57.62H50.93l-9-13.53h-.09c.09,1.61.13,2.83.13,3.65v9.88h-1V42.37H42l9,13.52h.07c-.07-1.25-.1-2.44-.1-3.56v-10h1Z" transform="translate(-3.73 -42.14)"/><path class="cls-1" d="M73.45,49.85a7.78,7.78,0,0,1-2,5.81c-1.34,1.31-3.32,2-5.92,2H61.87V42.37H66a7.53,7.53,0,0,1,5.56,1.91A7.57,7.57,0,0,1,73.45,49.85Zm-1.16,0A6.65,6.65,0,0,0,70.63,45a6.67,6.67,0,0,0-4.89-1.66h-2.8V56.69h2.52Q72.29,56.69,72.29,49.9Z" transform="translate(-3.73 -42.14)"/><path class="cls-1" d="M89.85,52.24h-6.2l-2.13,5.38H80.35l6.13-15.31h.68l6,15.31H92Zm-5.81-1h5.45l-2.07-5.49c-.18-.44-.38-1-.63-1.8a18.43,18.43,0,0,1-.61,1.82Z" transform="translate(-3.73 -42.14)"/><path class="cls-1" d="M107.38,43.12A5.75,5.75,0,0,0,102.87,45a7.26,7.26,0,0,0-1.65,5,7.55,7.55,0,0,0,1.55,5.07,5.57,5.57,0,0,0,4.45,1.8,11.89,11.89,0,0,0,3.52-.49v.94a11.37,11.37,0,0,1-3.77.53,6.42,6.42,0,0,1-5.06-2.07,8.45,8.45,0,0,1-1.85-5.8,9.06,9.06,0,0,1,.88-4.1,6.36,6.36,0,0,1,2.54-2.74,7.5,7.5,0,0,1,3.84-1,9.13,9.13,0,0,1,4,.83l-.42,1A7.68,7.68,0,0,0,107.38,43.12Z" transform="translate(-3.73 -42.14)"/><path class="cls-1" d="M119.69,57.62V42.37h1.07V57.62Z" transform="translate(-3.73 -42.14)"/><path class="cls-1" d="M143.44,50a8.51,8.51,0,0,1-1.81,5.74,7,7,0,0,1-10,0A8.55,8.55,0,0,1,129.81,50a8.39,8.39,0,0,1,1.83-5.73,7,7,0,0,1,10,0A8.53,8.53,0,0,1,143.44,50ZM131,50A7.76,7.76,0,0,0,132.43,55a5.07,5.07,0,0,0,4.19,1.79,5.13,5.13,0,0,0,4.21-1.77A7.82,7.82,0,0,0,142.28,50a7.72,7.72,0,0,0-1.45-5,5.11,5.11,0,0,0-4.19-1.76,5.18,5.18,0,0,0-4.2,1.77A7.69,7.69,0,0,0,131,50Z" transform="translate(-3.73 -42.14)"/><path class="cls-1" d="M163.58,57.62h-1.07l-9-13.53h-.09c.09,1.61.13,2.83.13,3.65v9.88h-1V42.37h1.07l9,13.52h.06c-.06-1.25-.09-2.44-.09-3.56v-10h1Z" transform="translate(-3.73 -42.14)"/><path class="cls-1" d="M183.63,57.62h-1.77V44H177V42.37h11.43V44h-4.83Z" transform="translate(-3.73 -42.14)"/><path class="cls-1" d="M205.89,57.62,204,52.77h-6.11L196,57.62h-1.79l6-15.31h1.49l6,15.31Zm-2.45-6.44-1.78-4.73c-.22-.59-.46-1.33-.7-2.2a22.62,22.62,0,0,1-.66,2.2l-1.8,4.73Z" transform="translate(-3.73 -42.14)"/><path class="cls-1" d="M220.06,57.62h-1.77V44h-4.83V42.37h11.43V44h-4.83Z" transform="translate(-3.73 -42.14)"/><path class="cls-1" d="M232.74,57.62V42.37h1.77V57.62Z" transform="translate(-3.73 -42.14)"/><path class="cls-1" d="M253.83,57.62l-1.9-4.85h-6.11l-1.88,4.85h-1.79l6-15.31h1.49l6,15.31Zm-2.45-6.44-1.78-4.73c-.22-.59-.46-1.33-.7-2.2a22.62,22.62,0,0,1-.66,2.2l-1.8,4.73Z" transform="translate(-3.73 -42.14)"/><path class="cls-1" d="M275.22,57.62h-2l-8.34-12.79h-.08c.11,1.5.17,2.87.17,4.13v8.66h-1.64V42.37h2l8.32,12.75h.08c0-.19,0-.79-.09-1.81s-.07-1.75-.06-2.18V42.37h1.66Z" transform="translate(-3.73 -42.14)"/><path class="cls-1" d="M294.55,57.62l-1.9-4.85h-6.11l-1.88,4.85h-1.79l6-15.31h1.49l6,15.31Zm-2.45-6.44-1.77-4.73c-.23-.59-.47-1.33-.71-2.2a22.62,22.62,0,0,1-.66,2.2l-1.8,4.73Z" transform="translate(-3.73 -42.14)"/></svg>