<svg viewBox="0 0 292.65 15.7" xmlns="http://www.w3.org/2000/svg"><g fill="#05171d" transform="translate(-3.73 -42.14)"><path d="m4.8 57.62h-1.07v-15.25h8.36v1h-7.29v6.46h6.88v1h-6.88z"/><path d="m31.22 42.37v9.87a5.45 5.45 0 0 1 -1.53 4.11 5.81 5.81 0 0 1 -4.24 1.48 5.59 5.59 0 0 1 -4.14-1.48 5.62 5.62 0 0 1 -1.48-4.15v-9.83h1.07v9.87a4.67 4.67 0 0 0 1.22 3.43 4.66 4.66 0 0 0 3.45 1.22 4.17 4.17 0 0 0 4.58-4.54v-10z"/><path d="m52 57.62h-1.07l-9-13.53h-.09c.09 1.61.13 2.83.13 3.65v9.88h-1v-15.25h1.03l9 13.52h.07c-.07-1.25-.1-2.44-.1-3.56v-10h1z"/><path d="m73.45 49.85a7.78 7.78 0 0 1 -2 5.81c-1.34 1.31-3.32 2-5.92 2h-3.66v-15.29h4.13a7.53 7.53 0 0 1 5.56 1.91 7.57 7.57 0 0 1 1.89 5.57zm-1.16 0a6.65 6.65 0 0 0 -1.66-4.85 6.67 6.67 0 0 0 -4.89-1.66h-2.8v13.35h2.52q6.83 0 6.83-6.79z"/><path d="m89.85 52.24h-6.2l-2.13 5.38h-1.17l6.13-15.31h.68l6 15.31h-1.16zm-5.81-1h5.45l-2.07-5.49c-.18-.44-.38-1-.63-1.8a18.43 18.43 0 0 1 -.61 1.82z"/><path d="m107.38 43.12a5.75 5.75 0 0 0 -4.51 1.88 7.26 7.26 0 0 0 -1.65 5 7.55 7.55 0 0 0 1.55 5.07 5.57 5.57 0 0 0 4.45 1.8 11.89 11.89 0 0 0 3.52-.49v.94a11.37 11.37 0 0 1 -3.77.53 6.42 6.42 0 0 1 -5.06-2.07 8.45 8.45 0 0 1 -1.85-5.8 9.06 9.06 0 0 1 .88-4.1 6.36 6.36 0 0 1 2.54-2.74 7.5 7.5 0 0 1 3.84-1 9.13 9.13 0 0 1 4 .83l-.42 1a7.68 7.68 0 0 0 -3.52-.85z"/><path d="m119.69 57.62v-15.25h1.07v15.25z"/><path d="m143.44 50a8.51 8.51 0 0 1 -1.81 5.74 7 7 0 0 1 -10 0 8.55 8.55 0 0 1 -1.82-5.74 8.39 8.39 0 0 1 1.83-5.73 7 7 0 0 1 10 0 8.53 8.53 0 0 1 1.8 5.73zm-12.44 0a7.76 7.76 0 0 0 1.43 5 5.07 5.07 0 0 0 4.19 1.79 5.13 5.13 0 0 0 4.21-1.77 7.82 7.82 0 0 0 1.45-5.02 7.72 7.72 0 0 0 -1.45-5 5.11 5.11 0 0 0 -4.19-1.76 5.18 5.18 0 0 0 -4.2 1.77 7.69 7.69 0 0 0 -1.44 4.99z"/><path d="m163.58 57.62h-1.07l-9-13.53h-.09c.09 1.61.13 2.83.13 3.65v9.88h-1v-15.25h1.07l9 13.52h.06c-.06-1.25-.09-2.44-.09-3.56v-10h1z"/><path d="m183.63 57.62h-1.77v-13.62h-4.86v-1.63h11.43v1.63h-4.83z"/><path d="m205.89 57.62-1.89-4.85h-6.11l-1.89 4.85h-1.79l6-15.31h1.49l6 15.31zm-2.45-6.44-1.78-4.73c-.22-.59-.46-1.33-.7-2.2a22.62 22.62 0 0 1 -.66 2.2l-1.8 4.73z"/><path d="m220.06 57.62h-1.77v-13.62h-4.83v-1.63h11.43v1.63h-4.83z"/><path d="m232.74 57.62v-15.25h1.77v15.25z"/><path d="m253.83 57.62-1.9-4.85h-6.11l-1.88 4.85h-1.79l6-15.31h1.49l6 15.31zm-2.45-6.44-1.78-4.73c-.22-.59-.46-1.33-.7-2.2a22.62 22.62 0 0 1 -.66 2.2l-1.8 4.73z"/><path d="m275.22 57.62h-2l-8.34-12.79h-.08c.11 1.5.17 2.87.17 4.13v8.66h-1.64v-15.25h2l8.32 12.75h.08c0-.19 0-.79-.09-1.81s-.07-1.75-.06-2.18v-8.76h1.66z"/><path d="m294.55 57.62-1.9-4.85h-6.11l-1.88 4.85h-1.79l6-15.31h1.49l6 15.31zm-2.45-6.44-1.77-4.73c-.23-.59-.47-1.33-.71-2.2a22.62 22.62 0 0 1 -.66 2.2l-1.8 4.73z"/></g></svg>